<?xml version="1.0" standalone="no"?>
<!DOCTYPE svg PUBLIC "-//W3C//DTD SVG 20010904//EN"
 "http://www.w3.org/TR/2001/REC-SVG-20010904/DTD/svg10.dtd">
<svg version="1.0" xmlns="http://www.w3.org/2000/svg"
 width="546.000000pt" height="546.000000pt" viewBox="0 0 546.000000 546.000000"
 preserveAspectRatio="xMidYMid meet">
<metadata>
Created by potrace 1.11, written by Peter Selinger 2001-2013
</metadata>
<g transform="translate(0.000000,546.000000) scale(0.100000,-0.100000)"
fill="#000000" stroke="none">
<path d="M2859 5456 c-2 -2 -33 -6 -69 -9 -534 -46 -1075 -276 -1505 -641 -85
-72 -255 -243 -310 -311 -22 -28 -42 -52 -45 -55 -3 -3 -27 -32 -52 -66 -88
-115 -189 -279 -261 -424 -69 -137 -154 -346 -146 -355 2 -2 36 5 74 16 74 21
147 37 204 45 19 2 46 6 60 9 159 26 469 22 696 -10 50 -7 92 -8 93 -4 2 5 29
45 60 88 282 393 727 653 1212 710 79 9 363 8 396 -2 10 -3 40 -8 67 -11 128
-15 341 -83 491 -157 127 -63 246 -142 363 -241 51 -43 95 -78 99 -78 4 0 164
158 357 350 l350 351 -54 50 c-358 335 -763 556 -1237 674 -53 13 -113 26
-132 29 -19 3 -44 7 -55 10 -11 2 -47 7 -80 11 -32 4 -68 9 -80 12 -24 6 -490
15 -496 9z"/>
<path d="M2795 3230 l-90 -5 346 -172 c191 -95 349 -173 352 -173 3 0 34 -13
69 -29 148 -68 185 -83 340 -145 255 -100 542 -191 668 -210 19 -3 46 -8 60
-11 43 -9 162 -19 225 -19 147 1 250 34 298 97 55 72 61 109 65 403 l3 272
-1123 -2 c-618 0 -1163 -3 -1213 -6z"/>
<path d="M967 3183 c-2 -1 -32 -5 -68 -8 -140 -12 -291 -55 -383 -109 -76 -44
-114 -84 -148 -154 -33 -66 -33 -68 -34 -222 -1 -85 2 -186 7 -225 18 -148 21
-169 25 -189 2 -12 9 -48 15 -81 21 -119 115 -436 139 -470 3 -5 15 -32 25
-60 31 -86 148 -305 226 -425 200 -305 470 -579 770 -781 48 -32 90 -59 93
-59 3 0 22 -12 43 -26 59 -40 258 -137 373 -182 94 -36 253 -90 283 -96 7 -2
30 -8 52 -14 99 -27 260 -55 415 -72 73 -8 510 -5 560 3 14 3 50 8 80 12 30 3
89 13 130 22 41 8 83 16 92 18 154 31 422 127 600 216 273 135 482 286 718
515 l155 152 -1 313 c-4 788 -3 771 -16 762 -15 -9 -12 -8 -98 -27 -36 -8 -85
-17 -110 -20 -46 -7 -230 -8 -285 -2 -114 12 -194 25 -313 50 -29 6 -142 35
-165 42 -17 5 -18 -11 -16 -340 1 -191 0 -348 -2 -350 -214 -172 -548 -320
-794 -352 -27 -3 -59 -8 -70 -11 -39 -9 -311 -10 -380 -2 -137 16 -156 20
-247 44 -595 154 -1064 604 -1234 1184 -14 47 -27 97 -30 111 -2 14 -7 36 -10
50 -28 117 -38 407 -19 550 8 66 31 178 40 203 6 14 2 17 -21 18 -16 0 -38 3
-49 5 -22 5 -344 12 -348 7z"/>
</g>
</svg>
